<?xml version="1.0" standalone="no"?>
<!DOCTYPE svg PUBLIC "-//W3C//DTD SVG 20010904//EN"
 "http://www.w3.org/TR/2001/REC-SVG-20010904/DTD/svg10.dtd">
<svg version="1.0" xmlns="http://www.w3.org/2000/svg"
 width="1024.000000pt" height="1024.000000pt" viewBox="0 0 1024.000000 1024.000000"
 preserveAspectRatio="xMidYMid meet">
<metadata>
Created by potrace 1.11, written by Peter Selinger 2001-2013
</metadata>
<g transform="translate(0.000000,1024.000000) scale(0.100000,-0.100000)"
fill="#000000" stroke="none">
<path d="M0 5120 l0 -5120 5120 0 5120 0 0 5120 0 5120 -5120 0 -5120 0 0
-5120z m5937 3582 c464 -201 798 -619 878 -1101 14 -83 16 -139 12 -285 -6
-204 -22 -295 -86 -486 -40 -119 -126 -310 -141 -310 -17 0 -221 110 -295 159
-312 209 -532 486 -635 801 -53 162 -65 246 -64 450 1 204 16 297 74 473 45
132 145 337 165 337 3 0 44 -17 92 -38z m-1622 -162 c233 -26 438 -117 607
-269 126 -114 240 -303 293 -486 31 -108 57 -271 53 -334 l-3 -46 -120 -3
c-622 -15 -1091 407 -1122 1010 l-6 117 24 5 c71 16 165 18 274 6z m380 -1326
c414 -57 790 -240 1150 -560 155 -138 413 -445 402 -478 -13 -39 -307 -239
-486 -330 -352 -179 -666 -259 -1016 -260 -191 0 -307 13 -475 54 -443 109
-828 354 -1138 725 -89 106 -194 263 -186 277 14 23 199 168 294 231 443 293
946 410 1455 341z m2825 -1314 c121 -11 258 -32 324 -51 l39 -11 -6 -111 c-19
-370 -180 -809 -412 -1122 -232 -314 -563 -563 -925 -695 -118 -44 -322 -94
-465 -116 -167 -25 -552 -26 -713 -1 -62 10 -119 20 -127 23 -19 8 -19 61 0
184 91 571 346 1063 725 1398 413 365 992 551 1560 502z m-4055 -440 c138 -29
314 -89 426 -145 52 -26 96 -49 97 -50 7 -6 -76 -172 -127 -255 -79 -126 -166
-234 -283 -346 -165 -159 -342 -267 -548 -334 -162 -53 -246 -65 -450 -64
-203 0 -293 15 -473 74 -97 32 -307 131 -326 154 -29 34 126 317 264 482 220
264 523 440 860 499 121 21 429 13 560 -15z m928 -616 c146 -178 323 -496 404
-725 163 -459 172 -908 27 -1348 -73 -222 -192 -444 -337 -631 -75 -95 -269
-292 -367 -370 -108 -86 -239 -172 -252 -164 -23 14 -168 198 -228 290 -394
597 -472 1306 -214 1938 141 345 401 685 729 953 79 64 168 124 179 120 6 -2
33 -30 59 -63z m3450 -759 c206 -36 417 -147 565 -298 l53 -54 -39 -49 c-142
-179 -364 -320 -591 -376 -105 -26 -309 -30 -416 -9 -93 18 -224 65 -310 109
-124 65 -315 212 -315 243 0 24 183 197 270 256 245 165 511 225 783 178z
m-4735 -275 c16 -625 -407 -1097 -1009 -1127 -135 -7 -124 -16 -134 112 -7 94
7 236 36 350 42 167 168 379 292 491 189 171 511 295 757 290 l55 -1 3 -115z
m2938 -351 c516 -51 949 -366 1174 -852 46 -101 105 -281 97 -301 -8 -19 -148
-72 -282 -106 -146 -37 -312 -54 -444 -47 -554 32 -1003 342 -1261 872 -59
121 -123 292 -114 307 8 12 211 75 319 98 179 38 335 47 511 29z"/>
</g>
</svg>
