<svg width="24" height="24" viewBox="0 0 24 24" fill="none" xmlns="http://www.w3.org/2000/svg">
<g opacity="0.75">
<path d="M21 4.34009C20.85 4.22093 20.6744 4.13815 20.487 4.09824C20.2996 4.05834 20.1056 4.06239 19.92 4.11009L13 5.89009V20.1601L20.56 18.2201C20.8304 18.1509 21.0699 17.9932 21.2402 17.7721C21.4106 17.551 21.502 17.2792 21.5 17.0001V5.32009C21.4969 5.12943 21.4503 4.94199 21.3636 4.77213C21.277 4.60227 21.1526 4.45448 21 4.34009Z" fill="white"/>
<path d="M11.0001 5.89013L4.06011 4.11013C3.87741 4.06782 3.6876 4.06651 3.50432 4.10627C3.32105 4.14604 3.14885 4.2259 3.00011 4.34013C2.84854 4.45863 2.72637 4.61052 2.64312 4.78397C2.55986 4.95742 2.51777 5.14775 2.52011 5.34013V17.0001C2.52032 17.2775 2.6128 17.547 2.78298 17.766C2.95316 17.9851 3.19138 18.1413 3.46011 18.2101L11.0001 20.1601V5.89013Z" fill="white"/>
</g>
</svg>
