<svg width="24" height="24" viewBox="0 0 24 24" fill="none" xmlns="http://www.w3.org/2000/svg">
<path d="M13.36 5.22973C13.2587 5.31368 13.175 5.41678 13.1137 5.53312C13.0523 5.64947 13.0145 5.77678 13.0025 5.90775C12.9904 6.03873 13.0043 6.1708 13.0433 6.29641C13.0824 6.42201 13.1458 6.53868 13.23 6.63973L16.86 10.9997L5 10.9997C4.73478 10.9997 4.48043 11.1051 4.29289 11.2926C4.10536 11.4802 4 11.7345 4 11.9997C4 12.2649 4.10536 12.5193 4.29289 12.7068C4.48043 12.8944 4.73478 12.9997 5 12.9997L16.86 12.9997L13.23 17.3597C13.146 17.4608 13.0826 17.5775 13.0437 17.7031C13.0047 17.8287 12.9909 17.9607 13.003 18.0917C13.0151 18.2226 13.0528 18.3499 13.1141 18.4662C13.1753 18.5825 13.2589 18.6857 13.36 18.7697C13.4611 18.8538 13.5778 18.9171 13.7034 18.956C13.829 18.995 13.961 19.0088 14.0919 18.9967C14.2229 18.9847 14.3501 18.9469 14.4665 18.8857C14.5828 18.8244 14.686 18.7408 14.77 18.6397L19.77 12.6397L19.86 12.4897L19.93 12.3597C20.0194 12.1281 20.0194 11.8714 19.93 11.6397L19.86 11.5097L19.77 11.3597L14.77 5.35973C14.6861 5.25847 14.5829 5.17477 14.4666 5.11341C14.3503 5.05206 14.2229 5.01426 14.092 5.00219C13.961 4.99011 13.8289 5.004 13.7033 5.04304C13.5777 5.08209 13.461 5.14552 13.36 5.22973Z" fill="#BDBDBD"/>
</svg>
