<svg width="24" height="24" viewBox="0 0 24 24" fill="none" xmlns="http://www.w3.org/2000/svg">
<g opacity="0.75">
<path d="M11.25 11.8301L3 8.36011V16.0901C3.00435 16.4125 3.10081 16.7268 3.27799 16.9962C3.45518 17.2655 3.7057 17.4785 4 17.6101L11.19 21.0001H11.25V11.8301Z" fill="white"/>
<path d="M12.0002 10.5L20.5102 6.93001C20.367 6.77089 20.1937 6.64173 20.0002 6.55001L12.8002 3.18001C12.5502 3.06164 12.2769 3.00024 12.0002 3.00024C11.7236 3.00024 11.4503 3.06164 11.2002 3.18001L4.00023 6.55001C3.8068 6.64173 3.63346 6.77089 3.49023 6.93001L12.0002 10.5Z" fill="white"/>
<path d="M12.75 11.8301V21.0001H12.8L20 17.6101C20.2928 17.4792 20.5423 17.2678 20.7193 17.0004C20.8964 16.733 20.9938 16.4207 21 16.1001V8.36011L12.75 11.8301Z" fill="white"/>
</g>
</svg>
