<svg width="19" height="19" viewBox="0 0 19 19" fill="none" xmlns="http://www.w3.org/2000/svg">
<path d="M18.0004 8.34992C17.989 8.16398 17.9258 7.98494 17.818 7.83299C17.7102 7.68104 17.5621 7.56222 17.3904 7.48992L15.2404 6.56992L17.5004 5.26992C17.6607 5.17776 17.7922 5.04299 17.8805 4.88059C17.9687 4.71819 18.0103 4.5345 18.0004 4.34992C17.989 4.16398 17.9258 3.98494 17.818 3.83299C17.7102 3.68104 17.5621 3.56222 17.3904 3.48992L9.39044 0.0799174C9.26706 0.0276605 9.13443 0.000732422 9.00044 0.000732422C8.86645 0.000732422 8.73382 0.0276605 8.61044 0.0799174L0.610438 3.48992C0.438746 3.56222 0.290665 3.68104 0.182886 3.83299C0.0751072 3.98494 0.0119166 4.16398 0.000437687 4.34992C-0.00938835 4.5345 0.0321358 4.71819 0.120399 4.88059C0.208663 5.04299 0.340211 5.17776 0.500438 5.26992L2.76044 6.56992L0.610438 7.48992C0.438746 7.56222 0.290665 7.68104 0.182886 7.83299C0.0751072 7.98494 0.0119166 8.16398 0.000437687 8.34992C-0.00938835 8.5345 0.0321358 8.71819 0.120399 8.88059C0.208663 9.043 0.340211 9.17776 0.500438 9.26992L2.76044 10.5699L0.610438 11.4899C0.438746 11.5622 0.290665 11.681 0.182886 11.833C0.0751072 11.9849 0.0119166 12.164 0.000437687 12.3499C-0.00938835 12.5345 0.0321358 12.7182 0.120399 12.8806C0.208663 13.043 0.340211 13.1778 0.500438 13.2699L8.50044 17.8699C8.65246 17.9577 8.8249 18.0039 9.00044 18.0039C9.17597 18.0039 9.34842 17.9577 9.50044 17.8699L17.5004 13.2699C17.6607 13.1778 17.7922 13.043 17.8805 12.8806C17.9687 12.7182 18.0103 12.5345 18.0004 12.3499C17.989 12.164 17.9258 11.9849 17.818 11.833C17.7102 11.681 17.5621 11.5622 17.3904 11.4899L15.2404 10.5699L17.5004 9.26992C17.6607 9.17776 17.7922 9.043 17.8805 8.88059C17.9687 8.71819 18.0103 8.5345 18.0004 8.34992ZM9.00044 2.08992L14.7604 4.53992L9.00044 7.84992L3.24044 4.53992L9.00044 2.08992ZM8.50044 9.86992C8.65246 9.95769 8.8249 10.0039 9.00044 10.0039C9.17597 10.0039 9.34842 9.95769 9.50044 9.86992L13.0704 7.86992L14.7604 8.58992L9.00044 11.8499L3.24044 8.53992L4.93044 7.81992L8.50044 9.86992ZM14.7604 12.5399L9.00044 15.8499L3.24044 12.5399L4.93044 11.8199L8.50044 13.8699C8.65246 13.9577 8.8249 14.0039 9.00044 14.0039C9.17597 14.0039 9.34842 13.9577 9.50044 13.8699L13.0704 11.8199L14.7604 12.5399Z" fill="white"/>
</svg>
