<svg width="18" height="18" viewBox="0 0 18 18" fill="none" xmlns="http://www.w3.org/2000/svg">
<path d="M10.8799 9.00009L16.6133 3.28008C16.8643 3.02901 17.0054 2.68849 17.0054 2.33342C17.0054 1.97835 16.8643 1.63782 16.6133 1.38675C16.3622 1.13568 16.0217 0.994629 15.6666 0.994629C15.3115 0.994629 14.971 1.13568 14.7199 1.38675L8.99992 7.12009L3.27992 1.38675C3.02885 1.13568 2.68832 0.994629 2.33325 0.994629C1.97818 0.994629 1.63766 1.13568 1.38659 1.38675C1.13551 1.63782 0.994463 1.97835 0.994463 2.33342C0.994463 2.68849 1.13551 3.02901 1.38659 3.28008L7.11992 9.00009L1.38659 14.7201C1.26161 14.844 1.16242 14.9915 1.09473 15.154C1.02704 15.3165 0.992188 15.4907 0.992188 15.6668C0.992188 15.8428 1.02704 16.017 1.09473 16.1795C1.16242 16.342 1.26161 16.4895 1.38659 16.6134C1.51054 16.7384 1.658 16.8376 1.82048 16.9053C1.98296 16.973 2.15724 17.0078 2.33325 17.0078C2.50927 17.0078 2.68354 16.973 2.84602 16.9053C3.0085 16.8376 3.15597 16.7384 3.27992 16.6134L8.99992 10.8801L14.7199 16.6134C14.8439 16.7384 14.9913 16.8376 15.1538 16.9053C15.3163 16.973 15.4906 17.0078 15.6666 17.0078C15.8426 17.0078 16.0169 16.973 16.1794 16.9053C16.3418 16.8376 16.4893 16.7384 16.6133 16.6134C16.7382 16.4895 16.8374 16.342 16.9051 16.1795C16.9728 16.017 17.0077 15.8428 17.0077 15.6668C17.0077 15.4907 16.9728 15.3165 16.9051 15.154C16.8374 14.9915 16.7382 14.844 16.6133 14.7201L10.8799 9.00009Z" fill="white"/>
</svg>
