<svg width="32" height="32" viewBox="0 0 32 32" fill="none" xmlns="http://www.w3.org/2000/svg">
<path d="M25.3337 12C24.5084 12.0023 23.7041 12.2599 23.0309 12.7373C22.3578 13.2147 21.8487 13.8886 21.5737 14.6667H4.00033C3.6467 14.6667 3.30756 14.8072 3.05752 15.0572C2.80747 15.3073 2.66699 15.6464 2.66699 16C2.66699 16.3536 2.80747 16.6928 3.05752 16.9428C3.30756 17.1929 3.6467 17.3333 4.00033 17.3333H21.5737C21.8183 18.0252 22.2485 18.6364 22.8172 19.1001C23.3859 19.5638 24.0712 19.8622 24.7981 19.9625C25.5251 20.0628 26.2656 19.9612 26.9386 19.6688C27.6116 19.3764 28.1913 18.9046 28.6141 18.3048C29.0369 17.7051 29.2866 17.0006 29.3359 16.2684C29.3851 15.5363 29.232 14.8047 28.8933 14.1537C28.5546 13.5028 28.0434 12.9575 27.4155 12.5776C26.7877 12.1978 26.0675 11.998 25.3337 12ZM25.3337 17.3333C25.07 17.3333 24.8122 17.2552 24.5929 17.1086C24.3736 16.9621 24.2027 16.7539 24.1018 16.5103C24.0009 16.2666 23.9745 15.9985 24.0259 15.7399C24.0774 15.4813 24.2044 15.2437 24.3909 15.0572C24.5773 14.8707 24.8149 14.7437 25.0735 14.6923C25.3322 14.6409 25.6003 14.6673 25.8439 14.7682C26.0875 14.8691 26.2958 15.04 26.4423 15.2593C26.5888 15.4785 26.667 15.7363 26.667 16C26.667 16.3536 26.5265 16.6928 26.2765 16.9428C26.0264 17.1929 25.6873 17.3333 25.3337 17.3333Z" fill="white"/>
<path d="M4.00033 9.33322H5.57366C5.85393 10.1054 6.36516 10.7726 7.03788 11.2441C7.7106 11.7156 8.51217 11.9685 9.33366 11.9685C10.1552 11.9685 10.9567 11.7156 11.6294 11.2441C12.3022 10.7726 12.8134 10.1054 13.0937 9.33322H28.0003C28.354 9.33322 28.6931 9.19274 28.9431 8.94269C29.1932 8.69265 29.3337 8.35351 29.3337 7.99989C29.3337 7.64626 29.1932 7.30713 28.9431 7.05708C28.6931 6.80703 28.354 6.66655 28.0003 6.66655H13.0937C12.8134 5.89435 12.3022 5.22717 11.6294 4.75567C10.9567 4.28418 10.1552 4.03125 9.33366 4.03125C8.51217 4.03125 7.7106 4.28418 7.03788 4.75567C6.36516 5.22717 5.85393 5.89435 5.57366 6.66655H4.00033C3.6467 6.66655 3.30756 6.80703 3.05752 7.05708C2.80747 7.30713 2.66699 7.64626 2.66699 7.99989C2.66699 8.35351 2.80747 8.69265 3.05752 8.94269C3.30756 9.19274 3.6467 9.33322 4.00033 9.33322ZM9.33366 6.66655C9.59737 6.66655 9.85515 6.74475 10.0744 6.89126C10.2937 7.03777 10.4646 7.24601 10.5655 7.48964C10.6664 7.73328 10.6928 8.00136 10.6414 8.26001C10.5899 8.51865 10.4629 8.75622 10.2765 8.94269C10.09 9.12916 9.85242 9.25615 9.59378 9.3076C9.33514 9.35905 9.06705 9.33264 8.82342 9.23173C8.57978 9.13081 8.37154 8.95991 8.22503 8.74065C8.07853 8.52138 8.00033 8.26359 8.00033 7.99989C8.00033 7.64626 8.1408 7.30713 8.39085 7.05708C8.6409 6.80703 8.98004 6.66655 9.33366 6.66655Z" fill="white"/>
<path d="M28.0003 22.6666H18.427C18.1467 21.8943 17.6355 21.2272 16.9628 20.7557C16.2901 20.2842 15.4885 20.0313 14.667 20.0312C13.8455 20.0312 13.0439 20.2842 12.3712 20.7557C11.6985 21.2272 11.1873 21.8943 10.907 22.6666H4.00033C3.6467 22.6666 3.30756 22.807 3.05752 23.0571C2.80747 23.3071 2.66699 23.6463 2.66699 23.9999C2.66699 24.3535 2.80747 24.6926 3.05752 24.9427C3.30756 25.1927 3.6467 25.3332 4.00033 25.3332H10.907C11.1873 26.1054 11.6985 26.7726 12.3712 27.2441C13.0439 27.7156 13.8455 27.9685 14.667 27.9685C15.4885 27.9685 16.2901 27.7156 16.9628 27.2441C17.6355 26.7726 18.1467 26.1054 18.427 25.3332H28.0003C28.354 25.3332 28.6931 25.1927 28.9431 24.9427C29.1932 24.6926 29.3337 24.3535 29.3337 23.9999C29.3337 23.6463 29.1932 23.3071 28.9431 23.0571C28.6931 22.807 28.354 22.6666 28.0003 22.6666ZM14.667 25.3332C14.4033 25.3332 14.1455 25.255 13.9262 25.1085C13.707 24.962 13.5361 24.7538 13.4352 24.5101C13.3342 24.2665 13.3078 23.9984 13.3593 23.7398C13.4107 23.4811 13.5377 23.2435 13.7242 23.0571C13.9107 22.8706 14.1482 22.7436 14.4069 22.6922C14.6655 22.6407 14.9336 22.6671 15.1772 22.768C15.4209 22.869 15.6291 23.0399 15.7756 23.2591C15.9221 23.4784 16.0003 23.7362 16.0003 23.9999C16.0003 24.3535 15.8599 24.6926 15.6098 24.9427C15.3598 25.1927 15.0206 25.3332 14.667 25.3332Z" fill="white"/>
</svg>
