<svg width="1920" height="583" viewBox="0 0 1920 583" fill="none" xmlns="http://www.w3.org/2000/svg">
<rect opacity="0.15" width="12.031" height="12.0103" rx="4" transform="matrix(0.498512 0.866883 -0.865164 0.50149 34.3926 117.403)" fill="#1791F2"/>
<rect opacity="0.15" width="12.031" height="12.0103" rx="4" transform="matrix(0.498711 0.866768 -0.865279 0.50129 338.393 426.463)" fill="#1791F2"/>
<rect opacity="0.15" width="12.0311" height="12.0104" rx="4" transform="matrix(0.498706 0.866771 -0.865276 0.501295 144.393 341.17)" fill="#1791F2"/>
<rect opacity="0.15" width="12.031" height="12.0103" rx="4" transform="matrix(0.498711 0.866768 -0.865279 0.50129 344.393 268.922)" fill="#1791F2"/>
<path opacity="0.15" fill-rule="evenodd" clip-rule="evenodd" d="M0 448.733C1.09246 449.162 2.36354 449.107 3.45993 448.471L6.92951 446.46C8.84079 445.352 9.49741 442.902 8.39611 440.987L6.38665 437.492C5.28535 435.577 2.84319 434.923 0.931915 436.031L0 436.571V448.733Z" fill="#1791F2"/>
<rect opacity="0.15" width="12.031" height="12.0103" rx="4" transform="matrix(0.49871 0.866769 -0.865279 0.501291 604.392 234.805)" fill="#1791F2"/>
<rect opacity="0.15" width="12.031" height="12.0104" rx="4" transform="matrix(0.498712 0.866768 -0.86528 0.501289 552.392 48.165)" fill="#1791F2"/>
<rect opacity="0.15" width="12.031" height="12.0103" rx="4" transform="matrix(0.498511 0.866883 -0.865163 0.50149 912.392 6.02023)" fill="#1791F2"/>
<rect opacity="0.15" width="12.031" height="12.0104" rx="4" transform="matrix(0.498712 0.866768 -0.86528 0.501289 1307.39 40.1376)" fill="#1791F2"/>
<rect opacity="0.15" width="12.031" height="12.0103" rx="4" transform="matrix(0.49871 0.866769 -0.865279 0.501291 908.392 543.865)" fill="#1791F2"/>
<rect opacity="0.15" width="12.031" height="12.0103" rx="4" transform="matrix(0.49871 0.866769 -0.865279 0.501291 714.392 458.573)" fill="#1791F2"/>
<rect opacity="0.15" width="12.031" height="12.0104" rx="4" transform="matrix(0.498712 0.866768 -0.86528 0.501289 550.392 503.728)" fill="#1791F2"/>
<rect opacity="0.15" width="12.031" height="12.0103" rx="4" transform="matrix(0.49871 0.866769 -0.865279 0.501291 914.392 386.325)" fill="#1791F2"/>
<rect opacity="0.15" width="12.031" height="12.0104" rx="4" transform="matrix(0.498512 0.866883 -0.865164 0.501489 1086.39 48.9739)" fill="#1791F2"/>
<rect opacity="0.15" width="12.031" height="12.0104" rx="4" transform="matrix(0.498713 0.866767 -0.86528 0.501288 1401.39 365.253)" fill="#1791F2"/>
<rect opacity="0.15" width="12.031" height="12.0104" rx="4" transform="matrix(0.498712 0.866768 -0.86528 0.501289 1207.39 279.96)" fill="#1791F2"/>
<rect opacity="0.15" width="12.031" height="12.0104" rx="4" transform="matrix(0.498712 0.866768 -0.86528 0.501289 1043.39 325.115)" fill="#1791F2"/>
<rect opacity="0.15" width="12.031" height="12.0104" rx="4" transform="matrix(0.498712 0.866768 -0.86528 0.501289 1407.39 207.713)" fill="#1791F2"/>
<rect opacity="0.15" width="12.031" height="12.0104" rx="4" transform="matrix(0.498512 0.866883 -0.865164 0.501489 1564.39 16.0549)" fill="#1791F2"/>
<rect opacity="0.15" width="12.031" height="12.0104" rx="4" transform="matrix(0.498712 0.866768 -0.86528 0.501289 1868.39 325.115)" fill="#1791F2"/>
<rect opacity="0.15" width="12.031" height="12.0104" rx="4" transform="matrix(0.498713 0.866767 -0.86528 0.501288 1672.39 448.539)" fill="#1791F2"/>
<rect opacity="0.15" width="12.031" height="12.0104" rx="4" transform="matrix(0.498711 0.866768 -0.865279 0.50129 1372.39 509.749)" fill="#1791F2"/>
<rect opacity="0.15" width="12.031" height="12.0104" rx="4" transform="matrix(0.498712 0.866768 -0.86528 0.501289 1674.39 239.823)" fill="#1791F2"/>
<rect opacity="0.15" width="12.031" height="12.0104" rx="4" transform="matrix(0.498713 0.866767 -0.86528 0.501288 1510.39 284.978)" fill="#1791F2"/>
<rect opacity="0.15" width="12.031" height="12.0104" rx="4" transform="matrix(0.498712 0.866768 -0.86528 0.501289 1874.39 167.575)" fill="#1791F2"/>
<mask id="mask0" mask-type="alpha" maskUnits="userSpaceOnUse" x="1358" y="0" width="462" height="210">
<rect x="1358" y="0.258789" width="462" height="208.889" fill="url(#paint0_linear)"/>
</mask>
<g mask="url(#mask0)">
<ellipse opacity="0.15" cx="1680" cy="40.2374" rx="120" ry="119.936" fill="#9C95DC"/>
</g>
<defs>
<linearGradient id="paint0_linear" x1="1820" y1="206.273" x2="1713.33" y2="-108.125" gradientUnits="userSpaceOnUse">
<stop stop-color="#0B163C"/>
<stop offset="1" stop-color="#303159"/>
</linearGradient>
</defs>
</svg>
