<svg width="24" height="26" viewBox="0 0 24 26" fill="none" xmlns="http://www.w3.org/2000/svg">
<path d="M12.3613 17.4612C12.3613 17.4612 16.1 18.3713 19.0617 16.0698C22.0235 13.7684 21.9305 10.2978 21.9305 10.2978C21.9305 10.2978 18.5793 9.26618 15.5354 11.4609C12.4916 13.6556 12.3613 17.4612 12.3613 17.4612Z" fill="white"/>
<path d="M12.3491 19.1968C12.3491 19.1968 12.9598 21.8003 15.3543 22.905C17.7488 24.0098 19.9167 22.852 19.9167 22.852C19.9167 22.852 19.5095 20.4499 17.153 19.2599C14.7965 18.0699 12.3491 19.1968 12.3491 19.1968Z" fill="white"/>
<path d="M17.9829 18.0699C17.9829 18.0699 19.2755 19.4915 21.1617 19.3626C23.048 19.2337 24 17.7666 24 17.7666C24 17.7666 22.9028 16.4027 21.0145 16.4645C19.1262 16.5262 17.9829 18.0699 17.9829 18.0699Z" fill="white"/>
<path d="M16.0925 9.09704C16.0925 9.09704 14.0997 5.83851 10.3597 5.39419C6.61966 4.94988 4.2048 7.46945 4.2048 7.46945C4.2048 7.46945 5.83732 10.5427 9.55833 11.12C13.2793 11.6972 16.0925 9.09704 16.0925 9.09704Z" fill="white"/>
<path d="M17.341 7.8782C17.341 7.8782 18.7713 5.61099 17.8668 3.1545C16.9624 0.698018 14.6025 0 14.6025 0C14.6025 0 13.1776 1.98532 13.9918 4.47268C14.806 6.96004 17.341 7.8782 17.341 7.8782Z" fill="white"/>
<path d="M12.5527 4.73511C12.5527 4.73511 12.6544 2.82563 11.2282 1.59671C9.80194 0.367798 8.0812 0.7403 8.0812 0.7403C8.0812 0.7403 7.88172 2.47192 9.26251 3.7505C10.6433 5.02908 12.5527 4.73511 12.5527 4.73511Z" fill="white"/>
<path d="M9.19873 13.5751C9.19873 13.5751 5.90247 15.5463 5.45397 19.2458C5.00546 22.9453 7.55128 25.3333 7.55128 25.3333C7.55128 25.3333 10.6582 23.7225 11.2418 20.0385C11.8253 16.3544 9.19873 13.5751 9.19873 13.5751Z" fill="white"/>
<path d="M7.96449 12.3381C7.96449 12.3381 5.67041 10.924 3.18905 11.8186C0.707698 12.7133 0 15.0476 0 15.0476C0 15.0476 2.00707 16.4571 4.52167 15.6517C7.03627 14.8463 7.96449 12.3381 7.96449 12.3381Z" fill="white"/>
<path d="M4.78833 17.0766C4.78833 17.0766 2.85794 16.9753 1.61624 18.3861C0.37455 19.7969 0.748415 21.4996 0.748415 21.4996C0.748415 21.4996 2.49968 21.6969 3.79226 20.3311C5.08485 18.9653 4.78833 17.0766 4.78833 17.0766Z" fill="white"/>
</svg>
