<svg width="24" height="25" viewBox="0 0 24 25" fill="none" xmlns="http://www.w3.org/2000/svg">
<path d="M4.28513 7.30963C4.29666 7.1949 4.28093 7.07908 4.23923 6.97158C4.19753 6.86407 4.13102 6.76793 4.04513 6.69095L2.27513 4.55909V4.23926H7.77313L12.0231 13.5543L15.7591 4.23926H21.0001V4.55809L19.4851 6.00832C19.4217 6.05768 19.3727 6.1231 19.3432 6.1978C19.3136 6.2725 19.3046 6.35375 19.3171 6.43309V17.0934C19.3044 17.1728 19.3133 17.2541 19.3429 17.3288C19.3724 17.4036 19.4216 17.469 19.4851 17.5182L20.9641 18.9684V19.2873H13.5281V18.9684L15.0571 17.4822C15.2091 17.3323 15.2091 17.2873 15.2091 17.0584V8.44102L10.9501 19.2523H10.3751L5.41713 8.44102V15.6862C5.37613 15.991 5.47713 16.2978 5.69213 16.5187L7.68413 18.9344V19.2533H2.03613V18.9344L4.02813 16.5187C4.13293 16.4096 4.21075 16.2774 4.25537 16.1329C4.29999 15.9883 4.31018 15.8354 4.28513 15.6862V7.30963Z" fill="white"/>
</svg>
