<svg width="163" height="160" viewBox="0 0 163 160" fill="none" xmlns="http://www.w3.org/2000/svg">
<path d="M158.067 120.2C158.118 120.132 158.166 120.061 158.21 119.989C158.218 119.976 158.229 119.964 158.236 119.951C158.243 119.939 158.249 119.928 158.255 119.917C158.262 119.906 158.268 119.895 158.274 119.884C168.698 102.076 161.5 72.5786 140.386 45.8815L141.09 45.1773C144.292 41.9689 144.292 36.7737 141.09 33.5653L129.436 21.9114C126.226 18.7132 121.034 18.7132 117.824 21.9114L117.12 22.6156C90.3926 1.47819 60.8545 -5.71978 43.0509 4.76519C43.0277 4.77888 43.0076 4.79607 42.985 4.81008C42.928 4.84637 42.872 4.88394 42.8179 4.92405C42.7806 4.95175 42.7437 4.97944 42.708 5.00873C42.659 5.04916 42.6129 5.09182 42.5667 5.13544C42.5145 5.18478 42.4648 5.23572 42.4171 5.28888C42.3754 5.33504 42.3343 5.38121 42.2958 5.43023C42.2639 5.47098 42.2347 5.513 42.205 5.55534C42.1751 5.59832 42.1465 5.64225 42.1188 5.68714C42.0917 5.73139 42.0647 5.77533 42.0401 5.82117C42.0137 5.87083 41.9902 5.92209 41.9666 5.97334C41.9297 6.05357 41.8972 6.13538 41.8682 6.21911C41.852 6.26623 41.8348 6.31302 41.8211 6.3611C41.8046 6.41967 41.7915 6.47921 41.7788 6.53874C41.7702 6.57885 41.7622 6.61928 41.7555 6.66035C41.745 6.72434 41.7358 6.78801 41.7297 6.85295C41.7288 6.86282 41.7266 6.87205 41.7259 6.88192C41.7234 6.91089 41.7247 6.93923 41.7231 6.9682C41.7205 7.022 41.7135 7.07484 41.7138 7.12896C41.7145 7.18468 41.7224 7.2388 41.7262 7.29355C41.7297 7.34258 41.7313 7.39192 41.7374 7.44031C41.7444 7.49571 41.7552 7.54951 41.7654 7.60395C41.7746 7.65393 41.7845 7.70359 41.7966 7.7523C41.8093 7.80451 41.8233 7.85608 41.8393 7.90702C41.8552 7.95891 41.874 8.00953 41.8931 8.06015C41.9109 8.10758 41.9271 8.15534 41.9475 8.2015C41.9841 8.28459 42.0255 8.36545 42.0701 8.44408C42.0949 8.4877 42.1226 8.52908 42.1497 8.57142C42.1789 8.61695 42.2089 8.66152 42.2407 8.70513C42.2703 8.74556 42.3002 8.78536 42.3321 8.82388C42.3722 8.8729 42.4152 8.9197 42.4588 8.96618C42.4865 8.99579 42.5129 9.02635 42.5419 9.05468C42.6119 9.12249 42.6861 9.18585 42.7631 9.24601C42.7902 9.26703 42.8185 9.28676 42.8465 9.30682C42.9118 9.35394 42.9793 9.39819 43.0487 9.43957C43.064 9.4488 43.0777 9.45995 43.0933 9.46886C43.1022 9.47396 43.112 9.47714 43.1209 9.48223C43.3116 9.58793 43.517 9.6707 43.7338 9.72832C43.7542 9.73373 43.7745 9.73819 43.7949 9.74296C43.8837 9.76429 43.9741 9.78117 44.0665 9.7939C44.0872 9.79677 44.1075 9.79995 44.1282 9.80218C44.1546 9.80504 44.1804 9.81045 44.2072 9.813C60.8933 11.1781 82.2568 21.6583 101.795 37.9844C100.561 39.4565 99.8767 41.3204 99.8767 43.256C99.8767 44.5001 100.16 45.715 100.689 46.8152L3.21154 144.294C0.0763983 147.426 -0.861789 152.139 0.834079 156.234C2.53027 160.328 6.52624 162.997 10.958 162.994C13.8646 163 16.6534 161.846 18.7074 159.79L116.182 62.3149C117.283 62.8453 118.499 63.128 119.745 63.1245C121.682 63.1302 123.547 62.4445 125.017 61.2067C141.342 80.7444 151.823 102.108 153.188 118.794C153.19 118.825 153.196 118.855 153.2 118.886C153.201 118.9 153.203 118.914 153.205 118.928C153.22 119.037 153.24 119.144 153.266 119.249C153.267 119.25 153.267 119.253 153.268 119.255C153.327 119.485 153.417 119.702 153.53 119.903C153.533 119.908 153.535 119.913 153.537 119.918C153.539 119.921 153.542 119.924 153.544 119.928C153.658 120.125 153.796 120.306 153.954 120.468C153.966 120.481 153.979 120.494 153.992 120.507C154.149 120.66 154.323 120.795 154.512 120.907C154.528 120.917 154.544 120.925 154.56 120.935C154.646 120.984 154.736 121.029 154.828 121.068C154.837 121.072 154.846 121.077 154.855 121.081C154.957 121.123 155.062 121.159 155.17 121.189C155.184 121.193 155.199 121.196 155.214 121.2C155.304 121.223 155.396 121.241 155.489 121.255C155.514 121.259 155.54 121.263 155.566 121.267C155.674 121.28 155.783 121.289 155.894 121.289C155.968 121.289 156.042 121.286 156.119 121.281C156.15 121.278 156.179 121.272 156.209 121.269C156.239 121.265 156.268 121.261 156.298 121.257C156.382 121.245 156.464 121.228 156.544 121.208C156.57 121.202 156.595 121.197 156.62 121.19C156.724 121.161 156.827 121.128 156.925 121.087C156.934 121.084 156.943 121.078 156.953 121.075C157.04 121.038 157.125 120.996 157.207 120.95C157.237 120.934 157.265 120.917 157.293 120.9C157.357 120.861 157.418 120.821 157.479 120.777C157.507 120.757 157.535 120.737 157.563 120.716C157.642 120.654 157.72 120.589 157.792 120.518C157.807 120.503 157.821 120.487 157.836 120.472C157.895 120.411 157.952 120.348 158.005 120.282C158.026 120.254 158.046 120.227 158.067 120.2ZM156.878 108.082C152.963 92.2092 143.153 74.3283 128.897 57.3708L136.518 49.7498C152.338 69.9831 159.879 92.2121 156.878 108.082ZM113.252 26.4829L105.63 34.1037C88.6716 19.8469 70.79 10.0368 54.9166 6.12265C70.7855 3.1193 93.0174 10.6601 113.252 26.4829ZM14.8658 155.949C13.4702 157.344 11.4359 157.889 9.52958 157.378C7.62296 156.867 6.13402 155.378 5.62307 153.472C5.11211 151.565 5.65713 149.531 7.05279 148.136L104.204 50.9847L112.017 58.7977L14.8658 155.949ZM117.779 56.8768L106.125 45.2225C105.603 44.7017 105.31 43.9949 105.31 43.2579C105.31 42.5209 105.603 41.8142 106.125 41.2934L107.639 39.7786C107.644 39.7745 107.648 39.7697 107.652 39.7656L121.665 25.7526C122.186 25.2318 122.892 24.9396 123.629 24.9408C124.366 24.9389 125.073 25.2312 125.595 25.7526L137.249 37.4069C138.331 38.4928 138.331 40.2498 137.249 41.336L121.705 56.8771C120.607 57.9261 118.877 57.9261 117.779 56.8768Z" fill="white"/>
</svg>
