<svg width="24" height="24" viewBox="0 0 24 24" fill="none" xmlns="http://www.w3.org/2000/svg">
<path d="M5.5 18.0001C5.2651 17.9978 5.03852 17.9128 4.86 17.7601C3.83405 16.9527 3.00037 15.9274 2.41927 14.7582C1.83817 13.5891 1.52418 12.3055 1.5 11.0001C1.52418 9.69478 1.83817 8.41112 2.41927 7.24201C3.00037 6.07289 3.83405 5.04754 4.86 4.24012C4.95679 4.13777 5.07412 4.05703 5.20429 4.00319C5.33446 3.94934 5.47454 3.9236 5.61535 3.92766C5.75616 3.93172 5.89453 3.96548 6.02138 4.02674C6.14823 4.08799 6.26071 4.17536 6.35145 4.28311C6.44219 4.39086 6.50914 4.51657 6.54791 4.652C6.58669 4.78742 6.59641 4.92952 6.57645 5.06896C6.55648 5.20841 6.50728 5.34207 6.43207 5.46117C6.35686 5.58028 6.25733 5.68216 6.14 5.76012C5.34191 6.38586 4.69158 7.17983 4.23527 8.08553C3.77897 8.99122 3.52792 9.98636 3.5 11.0001C3.52792 12.0139 3.77897 13.009 4.23527 13.9147C4.69158 14.8204 5.34191 15.6144 6.14 16.2401C6.34156 16.4094 6.46825 16.6513 6.49258 16.9134C6.51692 17.1755 6.43694 17.4366 6.27 17.6401C6.17598 17.753 6.05824 17.8438 5.92515 17.906C5.79207 17.9682 5.64691 18.0004 5.5 18.0001Z" fill="#BDBDBD"/>
<path d="M12 7C12.3378 7.00518 12.6737 7.05221 13 7.14V3C13 2.73478 12.8946 2.48043 12.7071 2.29289C12.5196 2.10536 12.2652 2 12 2C11.7348 2 11.4804 2.10536 11.2929 2.29289C11.1054 2.48043 11 2.73478 11 3V7.14C11.3263 7.05221 11.6622 7.00518 12 7Z" fill="#BDBDBD"/>
<path d="M12 15.0001C11.6622 14.9949 11.3263 14.9479 11 14.8601V20.0001C11 20.2653 11.1054 20.5197 11.2929 20.7072C11.4804 20.8948 11.7348 21.0001 12 21.0001C12.2652 21.0001 12.5196 20.8948 12.7071 20.7072C12.8946 20.5197 13 20.2653 13 20.0001V14.8601C12.6737 14.9479 12.3378 14.9949 12 15.0001Z" fill="#BDBDBD"/>
<path d="M15.9996 16.0001C15.8527 16.0004 15.7076 15.9682 15.5745 15.906C15.4414 15.8438 15.3236 15.753 15.2296 15.6401C15.0627 15.4366 14.9827 15.1755 15.007 14.9134C15.0314 14.6513 15.1581 14.4094 15.3596 14.2401C15.8538 13.8533 16.2569 13.3626 16.5403 12.8027C16.8237 12.2428 16.9805 11.6274 16.9996 11.0001C16.9805 10.3729 16.8237 9.75748 16.5403 9.19757C16.2569 8.63766 15.8538 8.14692 15.3596 7.76012C15.2423 7.68216 15.1428 7.58028 15.0676 7.46117C14.9923 7.34207 14.9431 7.20841 14.9232 7.06896C14.9032 6.92952 14.9129 6.78742 14.9517 6.652C14.9905 6.51657 15.0574 6.39086 15.1482 6.28311C15.2389 6.17536 15.3514 6.08799 15.4782 6.02674C15.6051 5.96548 15.7435 5.93172 15.8843 5.92766C16.0251 5.9236 16.1652 5.94934 16.2953 6.00319C16.4255 6.05703 16.5428 6.13778 16.6396 6.24012C17.3611 6.80908 17.9472 7.53129 18.3553 8.35452C18.7635 9.17775 18.9836 10.0814 18.9996 11.0001C18.9836 11.9188 18.7635 12.8225 18.3553 13.6457C17.9472 14.4689 17.3611 15.1912 16.6396 15.7601C16.4611 15.9128 16.2345 15.9978 15.9996 16.0001Z" fill="#BDBDBD"/>
<path d="M8 16.0001C7.7651 15.9978 7.53852 15.9128 7.36 15.7601C6.63849 15.1912 6.05245 14.4689 5.6443 13.6457C5.23614 12.8225 5.01607 11.9188 5 11.0001C5.01607 10.0814 5.23614 9.17775 5.6443 8.35452C6.05245 7.53129 6.63849 6.80908 7.36 6.24012C7.45679 6.13778 7.57412 6.05703 7.70429 6.00319C7.83446 5.94934 7.97454 5.9236 8.11535 5.92766C8.25616 5.93172 8.39453 5.96548 8.52138 6.02674C8.64823 6.08799 8.76071 6.17536 8.85145 6.28311C8.94219 6.39086 9.00914 6.51657 9.04791 6.652C9.08669 6.78742 9.09641 6.92952 9.07645 7.06896C9.05648 7.20841 9.00728 7.34207 8.93207 7.46117C8.85686 7.58028 8.75733 7.68216 8.64 7.76012C8.14582 8.14692 7.74275 8.63766 7.45934 9.19757C7.17593 9.75748 7.01911 10.3729 7 11.0001C7.01911 11.6274 7.17593 12.2428 7.45934 12.8027C7.74275 13.3626 8.14582 13.8533 8.64 14.2401C8.84156 14.4094 8.96825 14.6513 8.99258 14.9134C9.01692 15.1755 8.93694 15.4366 8.77 15.6401C8.67598 15.753 8.55824 15.8438 8.42515 15.906C8.29207 15.9682 8.14691 16.0004 8 16.0001Z" fill="#BDBDBD"/>
<path d="M18.4996 18.0001C18.3527 18.0004 18.2076 17.9682 18.0745 17.906C17.9414 17.8438 17.8236 17.753 17.7296 17.6401C17.5627 17.4366 17.4827 17.1755 17.507 16.9134C17.5314 16.6513 17.6581 16.4094 17.8596 16.2401C18.6577 15.6144 19.308 14.8204 19.7644 13.9147C20.2207 13.009 20.4717 12.0139 20.4996 11.0001C20.4717 9.98636 20.2207 8.99122 19.7644 8.08553C19.308 7.17983 18.6577 6.38586 17.8596 5.76012C17.7423 5.68216 17.6428 5.58028 17.5676 5.46117C17.4923 5.34207 17.4431 5.20841 17.4232 5.06896C17.4032 4.92952 17.4129 4.78742 17.4517 4.652C17.4905 4.51657 17.5574 4.39086 17.6482 4.28311C17.7389 4.17536 17.8514 4.08799 17.9782 4.02674C18.1051 3.96548 18.2435 3.93172 18.3843 3.92766C18.5251 3.9236 18.6652 3.94934 18.7953 4.00319C18.9255 4.05703 19.0428 4.13777 19.1396 4.24012C20.1656 5.04754 20.9993 6.07289 21.5804 7.24201C22.1615 8.41112 22.4754 9.69478 22.4996 11.0001C22.4754 12.3055 22.1615 13.5891 21.5804 14.7582C20.9993 15.9274 20.1656 16.9527 19.1396 17.7601C18.9611 17.9128 18.7345 17.9978 18.4996 18.0001Z" fill="#BDBDBD"/>
<path d="M12 12C11.8022 12 11.6089 11.9414 11.4444 11.8315C11.28 11.7216 11.1518 11.5654 11.0761 11.3827C11.0004 11.2 10.9806 10.9989 11.0192 10.8049C11.0578 10.6109 11.153 10.4327 11.2929 10.2929C11.4327 10.153 11.6109 10.0578 11.8049 10.0192C11.9989 9.98063 12.2 10.0004 12.3827 10.0761C12.5654 10.1518 12.7216 10.28 12.8315 10.4444C12.9414 10.6089 13 10.8022 13 11C13 11.2652 12.8946 11.5196 12.7071 11.7071C12.5196 11.8946 12.2652 12 12 12Z" fill="#BDBDBD"/>
</svg>
