<svg width="24" height="24" viewBox="0 0 24 24" fill="none" xmlns="http://www.w3.org/2000/svg">
<g opacity="0.75">
<path d="M13.2899 9.28994L9.28994 13.2899C9.19621 13.3829 9.12182 13.4935 9.07105 13.6154C9.02028 13.7372 8.99414 13.8679 8.99414 13.9999C8.99414 14.132 9.02028 14.2627 9.07105 14.3845C9.12182 14.5064 9.19621 14.617 9.28994 14.7099C9.3829 14.8037 9.4935 14.8781 9.61536 14.9288C9.73722 14.9796 9.86793 15.0057 9.99994 15.0057C10.132 15.0057 10.2627 14.9796 10.3845 14.9288C10.5064 14.8781 10.617 14.8037 10.7099 14.7099L14.7099 10.7099C14.8982 10.5216 15.004 10.2662 15.004 9.99994C15.004 9.73364 14.8982 9.47824 14.7099 9.28994C14.5216 9.10164 14.2662 8.99585 13.9999 8.99585C13.7336 8.99585 13.4782 9.10164 13.2899 9.28994Z" fill="white"/>
<path d="M12.28 17.3999L11 18.6699C10.2815 19.4104 9.31547 19.8604 8.28632 19.9342C7.25717 20.0079 6.23687 19.7003 5.42003 19.0699C4.9883 18.7142 4.636 18.2718 4.38587 17.7714C4.13574 17.271 3.99336 16.7238 3.96792 16.1649C3.94247 15.6061 4.03453 15.0481 4.23815 14.5271C4.44177 14.006 4.75242 13.5335 5.15003 13.1399L6.57003 11.7099C6.66376 11.617 6.73815 11.5064 6.78892 11.3845C6.83969 11.2627 6.86583 11.132 6.86583 10.9999C6.86583 10.8679 6.83969 10.7372 6.78892 10.6154C6.73815 10.4935 6.66376 10.3829 6.57003 10.2899C6.47707 10.1962 6.36647 10.1218 6.24461 10.071C6.12275 10.0203 5.99204 9.99414 5.86003 9.99414C5.72802 9.99414 5.59731 10.0203 5.47545 10.071C5.3536 10.1218 5.24299 10.1962 5.15003 10.2899L3.88003 11.5699C2.81019 12.6059 2.15262 13.995 2.0294 15.4791C1.90618 16.9633 2.32568 18.4417 3.21003 19.6399C3.73491 20.3209 4.39867 20.8823 5.15722 21.287C5.91577 21.6917 6.75174 21.9303 7.60961 21.9871C8.46748 22.0438 9.3276 21.9174 10.1328 21.6161C10.9381 21.3149 11.67 20.8458 12.28 20.2399L13.7 18.8199C13.8883 18.6316 13.9941 18.3762 13.9941 18.1099C13.9941 17.8436 13.8883 17.5882 13.7 17.3999C13.5117 17.2116 13.2563 17.1058 12.99 17.1058C12.7237 17.1058 12.4683 17.2116 12.28 17.3999Z" fill="white"/>
<path d="M19.66 3.22004C18.4535 2.3265 16.963 1.90272 15.4669 2.02786C13.9708 2.153 12.5714 2.81849 11.53 3.90004L10.45 5.00004C10.3266 5.08977 10.2234 5.20443 10.1471 5.33659C10.0707 5.46875 10.023 5.61546 10.007 5.76723C9.99098 5.919 10.007 6.07244 10.054 6.21763C10.1011 6.36281 10.1781 6.4965 10.28 6.61004C10.373 6.70377 10.4836 6.77816 10.6055 6.82893C10.7273 6.8797 10.858 6.90584 10.99 6.90584C11.1221 6.90584 11.2528 6.8797 11.3746 6.82893C11.4965 6.77816 11.6071 6.70377 11.7 6.61004L13 5.30004C13.7146 4.55635 14.6795 4.10387 15.7082 4.03C16.7369 3.95612 17.7565 4.26609 18.57 4.90004C19.005 5.25584 19.3601 5.69929 19.6122 6.2015C19.8643 6.70371 20.0078 7.25341 20.0333 7.81477C20.0587 8.37613 19.9656 8.93655 19.76 9.45953C19.5545 9.98251 19.241 10.4563 18.84 10.85L17.42 12.28C17.3263 12.373 17.2519 12.4836 17.2012 12.6055C17.1504 12.7273 17.1242 12.858 17.1242 12.99C17.1242 13.122 17.1504 13.2528 17.2012 13.3746C17.2519 13.4965 17.3263 13.6071 17.42 13.7C17.513 13.7938 17.6236 13.8682 17.7455 13.9189C17.8673 13.9697 17.998 13.9958 18.13 13.9958C18.2621 13.9958 18.3928 13.9697 18.5146 13.9189C18.6365 13.8682 18.7471 13.7938 18.84 13.7L20.26 12.28C20.8642 11.6701 21.3319 10.9388 21.6321 10.1346C21.9323 9.33031 22.0582 8.47144 22.0015 7.61484C21.9448 6.75824 21.7067 5.92348 21.303 5.16583C20.8994 4.40818 20.3394 3.74494 19.66 3.22004Z" fill="white"/>
</g>
</svg>
