<svg width="24" height="24" viewBox="0 0 24 24" fill="none" xmlns="http://www.w3.org/2000/svg">
<g opacity="0.75">
<path d="M4 8.99994H17L15.4 10.1999C15.2949 10.2787 15.2064 10.3775 15.1395 10.4905C15.0726 10.6034 15.0286 10.7285 15.0101 10.8585C14.9915 10.9885 14.9987 11.1209 15.0313 11.2481C15.0639 11.3753 15.1212 11.4949 15.2 11.5999C15.2931 11.7241 15.4139 11.8249 15.5528 11.8944C15.6916 11.9638 15.8448 11.9999 16 11.9999C16.2164 11.9999 16.4269 11.9298 16.6 11.7999L20.6 8.79994C20.7223 8.70662 20.8214 8.58634 20.8897 8.44845C20.9579 8.31056 20.9934 8.15879 20.9934 8.00494C20.9934 7.8511 20.9579 7.69933 20.8897 7.56144C20.8214 7.42355 20.7223 7.30327 20.6 7.20994L16.74 4.20994C16.5305 4.04684 16.2647 3.97364 16.0013 4.00646C15.7378 4.03928 15.4981 4.17542 15.335 4.38495C15.1719 4.59447 15.0987 4.8602 15.1315 5.12369C15.1643 5.38718 15.3005 5.62684 15.51 5.78994L17.08 6.99994H4C3.73478 6.99994 3.48043 7.1053 3.29289 7.29284C3.10536 7.48037 3 7.73473 3 7.99994C3 8.26516 3.10536 8.51952 3.29289 8.70705C3.48043 8.89459 3.73478 8.99994 4 8.99994Z" fill="white"/>
<path d="M20.0002 16H7.00023L8.60023 14.8C8.8124 14.6409 8.95267 14.404 8.99018 14.1414C9.02768 13.8789 8.95936 13.6122 8.80023 13.4C8.6411 13.1878 8.4042 13.0476 8.14165 13.0101C7.8791 12.9725 7.6124 13.0409 7.40023 13.2L3.40023 16.2C3.27792 16.2933 3.17879 16.4136 3.11056 16.5515C3.04233 16.6894 3.00684 16.8412 3.00684 16.995C3.00684 17.1488 3.04233 17.3006 3.11056 17.4385C3.17879 17.5764 3.27792 17.6967 3.40023 17.79L7.26023 20.79C7.43478 20.9255 7.64928 20.9993 7.87023 21C8.02294 20.9996 8.17355 20.9643 8.31049 20.8967C8.44743 20.8291 8.56707 20.731 8.66023 20.61C8.82262 20.4015 8.89589 20.1373 8.86404 19.8749C8.83218 19.6126 8.69779 19.3735 8.49023 19.21L6.92023 18H20.0002C20.2654 18 20.5198 17.8946 20.7073 17.7071C20.8949 17.5196 21.0002 17.2652 21.0002 17C21.0002 16.7348 20.8949 16.4804 20.7073 16.2929C20.5198 16.1054 20.2654 16 20.0002 16Z" fill="white"/>
</g>
</svg>
