<svg width="24" height="25" viewBox="0 0 24 25" fill="none" xmlns="http://www.w3.org/2000/svg">
<path d="M19.633 8.03741C19.646 8.21232 19.646 8.38622 19.646 8.56013C19.646 13.8823 15.593 20.015 8.186 20.015C5.904 20.015 3.784 19.3544 2 18.207C2.324 18.244 2.636 18.257 2.973 18.257C4.78599 18.2614 6.54765 17.6554 7.974 16.5369C7.13342 16.5217 6.31858 16.2445 5.64324 15.744C4.9679 15.2436 4.46578 14.5448 4.207 13.7454C4.456 13.7824 4.706 13.8073 4.968 13.8073C5.329 13.8073 5.692 13.7574 6.029 13.6704C5.11676 13.4863 4.29647 12.9921 3.70762 12.2718C3.11876 11.5516 2.79769 10.6497 2.799 9.71952V9.66954C3.336 9.96838 3.959 10.1553 4.619 10.1803C4.06609 9.81305 3.61272 9.31475 3.29934 8.72983C2.98596 8.14491 2.82231 7.49156 2.823 6.82805C2.823 6.08045 3.022 5.39481 3.371 4.79713C4.38314 6.04149 5.6455 7.05949 7.07634 7.7852C8.50717 8.51091 10.0746 8.92815 11.677 9.00989C11.615 8.71005 11.577 8.39922 11.577 8.08738C11.5767 7.55863 11.6807 7.035 11.8831 6.54644C12.0854 6.05788 12.3821 5.61397 12.7562 5.24009C13.1303 4.8662 13.5744 4.56966 14.0632 4.36744C14.5521 4.16521 15.076 4.06126 15.605 4.06152C16.765 4.06152 17.812 4.54727 18.548 5.33285C19.4498 5.15856 20.3145 4.82954 21.104 4.36036C20.8034 5.29069 20.1738 6.07955 19.333 6.57919C20.1328 6.48801 20.9144 6.2778 21.652 5.95552C21.1011 6.75819 20.4185 7.46206 19.633 8.03741Z" fill="white"/>
</svg>
